<svg xmlns="http://www.w3.org/2000/svg" viewBox="0 0 1200 675" width="1200" height="675" role="img" aria-label="What Size Kayak Paddle Do I Need — YakRigged sizing guide">
  <defs>
    <linearGradient id="bg" x1="0" y1="0" x2="1" y2="1">
      <stop offset="0" stop-color="#144841"/>
      <stop offset="1" stop-color="#2d8c7c"/>
    </linearGradient>
  </defs>
  <rect width="1200" height="675" fill="url(#bg)"/>
  <g stroke="#7cc8b6" stroke-opacity="0.28" stroke-width="2.5" fill="none">
    <path d="M0 600 Q 300 575 600 600 T 1200 600"/>
    <path d="M0 635 Q 300 612 600 635 T 1200 635"/>
  </g>
  <!-- ruler / sizing motif -->
  <g transform="translate(905,300) rotate(-27)" opacity="0.2">
    <rect x="-320" y="-11" width="640" height="22" rx="6" fill="#d6efe9"/>
    <g stroke="#0f3833" stroke-opacity="0.6" stroke-width="3">
      <line x1="-240" y1="-11" x2="-240" y2="6"/>
      <line x1="-160" y1="-11" x2="-160" y2="11"/>
      <line x1="-80" y1="-11" x2="-80" y2="6"/>
      <line x1="0" y1="-11" x2="0" y2="11"/>
      <line x1="80" y1="-11" x2="80" y2="6"/>
      <line x1="160" y1="-11" x2="160" y2="11"/>
      <line x1="240" y1="-11" x2="240" y2="6"/>
    </g>
  </g>
  <rect x="80" y="158" width="70" height="9" rx="4.5" fill="#f08a3e"/>
  <text x="80" y="138" font-family="Arial, Helvetica, sans-serif" font-size="27" letter-spacing="5" font-weight="700" fill="#d6efe9">YAKRIGGED · SIZING GUIDE</text>
  <text x="78" y="295" font-family="Arial, Helvetica, sans-serif" font-size="84" font-weight="800" fill="#ffffff">What Size Kayak</text>
  <text x="78" y="388" font-family="Arial, Helvetica, sans-serif" font-size="84" font-weight="800" fill="#ffffff">Paddle Do I <tspan fill="#f08a3e">Need?</tspan></text>
  <text x="80" y="460" font-family="Arial, Helvetica, sans-serif" font-size="34" font-weight="500" fill="#eff8f6">A sizing chart by your height &amp; kayak width</text>
</svg>
